# xmcd CD database file
#
# Track frame offsets:
#	150
#	30362
#	58280
#	79625
#	105900
#	123437
#	138590
#	156300
#	174312
#	195567
#	215187
#	238400
#
# Disc length: 3477 seconds
#
# Revision: 0
# Processed by: cddbd v1.5.1PL2 Copyright (c) Steve Scherf et al.
# Submitted via: CDex 1.51
#
DISCID=a70d930c
DTITLE=Various Artsists - Last Christmas '92
DYEAR=1992
DGENRE=Pop
TTITLE0=Wham! - Last Christmas(Pudding Mix)
TTITLE1=Harry Connick, Jr. - Jill
TTITLE2=Firehouse - Love Of A Lifetime(Extremely Acoustic Version)
TTITLE3=Geoge Michael - Don't Let The Sun Go Down On Me(Duet With Elton Jhon)
TTITLE4=Des'ree - Feel So High
TTITLE5=Pretty Maids - Please Don't Leave Me(Acoustic Version)
TTITLE6=Celine Dion - If You Asked Me To
TTITLE7=Europe - I'll Cry For You(Acoustic Version)
TTITLE8=Cover Girls - Wishing On A Star
TTITLE9=Irma - Decembernow
TTITLE10=Bros - Silent Night
TTITLE11=Linze - Last Christmas( Last Christmas(Music Box Version)
EXTD=YEAR: 1992
EXTT0=
EXTT1=
EXTT2=
EXTT3=
EXTT4=
EXTT5=
EXTT6=
EXTT7=
EXTT8=
EXTT9=
EXTT10=
EXTT11=
PLAYORDER=
